<svg xmlns="http://www.w3.org/2000/svg" xmlns:xlink="http://www.w3.org/1999/xlink" viewBox="0 0 500 500"><defs><clipPath id="freepik--clip-path--inject-86"><path d="M307.85,412.39c-.74,5.69-1.58,11.85-2.54,18.54H219.47l.41-11.06c-5.13,1.24-15.1.48-15.1.48V404c6.06-3.43,7-2.47,7-2.47s.31-39.9,3.94-49.86a20.09,20.09,0,0,1,7.1-9.34h0a24.31,24.31,0,0,1,2.71-1.75l.13-.08c1-.53,2.21-1.09,3.59-1.67l.38-.15c13.44-5.49,42.77-11.86,70.1-.18,1.91.82,17.51,8.27,18.84,19C319.29,363.67,315.11,394.21,307.85,412.39Z" style="fill:#823AE0;stroke:#263238;stroke-linecap:round;stroke-linejoin:round"></path></clipPath><clipPath id="freepik--clip-path-2--inject-86"><path d="M239.14,407.37a3.57,3.57,0,0,1,4.1-1,3.67,3.67,0,0,1,4.06-.28c2,1.32,6,16.32,2.11,19.13-1.12.8-4.25,1.55-5.21-.06a2.37,2.37,0,0,1-3.65-1.15c-1.12-2.61.93-5.82-2-13.39A3.19,3.19,0,0,1,239.14,407.37Z" style="fill:#823AE0;stroke:#263238;stroke-linecap:round;stroke-linejoin:round"></path></clipPath><clipPath id="freepik--clip-path-3--inject-86"><path d="M274.42,333.27,273,313.12,252.14,318,251,334.13c-1.31.16-2.56.35-3.79.53l5.1,12.23,10,1.31,15.94-14.69C277,333.41,275.68,333.33,274.42,333.27Z" style="fill:#fff;stroke:#263238;stroke-linecap:round;stroke-linejoin:round"></path></clipPath><clipPath id="freepik--clip-path-4--inject-86"><path d="M250,333.19l7.7,13.86,18.49-14.59,5.69.8-12,21.15a1.63,1.63,0,0,1-2.28.57l-10.23-6.46-8,4.88a1.63,1.63,0,0,1-2.47-1.21l-2-18.06Z" style="fill:#823AE0;stroke:#263238;stroke-linecap:round;stroke-linejoin:round"></path></clipPath><clipPath id="freepik--clip-path-5--inject-86"><path d="M376.36,313s-1.37,17,7.38,31.55c0,0-11.79,3.85-24.09.19h0a40.46,40.46,0,0,0-.74-13.48l-.42-1.85,8.94-7.73Z" style="fill:#fff;stroke:#263238;stroke-linecap:round;stroke-linejoin:round"></path></clipPath><clipPath id="freepik--clip-path-6--inject-86"><path d="M404.14,422.46q-.66,4.08-1.41,8.47H334.15c-.11-.92.54-2.77,1.16-6-7.64,2.59-21-1.43-21-1.43,1.66-4.37.51-15.47.51-15.47l7.78-1.65s3.23-33.82,5.69-43.51c2.61-10.28,16.89-21.5,64.92-18.19h0s22.16-.42,25.6,14.27C422.05,372.66,405.06,421.83,404.14,422.46Z" style="fill:#823AE0;stroke:#263238;stroke-linecap:round;stroke-linejoin:round"></path></clipPath><clipPath id="freepik--clip-path-7--inject-86"><path d="M378.84,407.84s2.24-4.94,8.94-2.5c0,0,6.33,2.18,8.23,8.69s-.48,12.32-5.1,12.56-5.46-.12-4.68-1.54a11.62,11.62,0,0,0,.36-10.12C383.72,408.06,378.84,407.84,378.84,407.84Z" style="fill:#823AE0;stroke:#263238;stroke-linecap:round;stroke-linejoin:round"></path></clipPath><clipPath id="freepik--clip-path-8--inject-86"><path d="M206,408H101.16a5,5,0,0,1-4.78-4.26l-9.1-74.1A3.68,3.68,0,0,1,91,325.41H195.88a5,5,0,0,1,4.78,4.26l9.1,74.1A3.69,3.69,0,0,1,206,408Z" style="fill:#263238;stroke:#263238;stroke-linecap:round;stroke-linejoin:round"></path></clipPath></defs><g id="freepik--background-simple--inject-86"><path d="M86.26,358.2C60.65,321.76,2.07,215.13,120.15,183.27S200.43,60.4,286.69,61.74s170.92,73.59,160.52,142.15S342.16,267,315.7,337.83,131.32,422.3,86.26,358.2Z" style="fill:#823AE0"></path><path d="M86.26,358.55C60.65,322.11,2.07,215.48,120.15,183.62S200.43,60.75,286.69,62.08s170.92,73.6,160.52,142.16-105,63.11-131.51,133.93S131.32,422.65,86.26,358.55Z" style="fill:#fff;opacity:0.7000000000000001"></path></g><g id="freepik--Graphics--inject-86"><path d="M380.52,194.16a21.9,21.9,0,0,0,11-6.38l7.05,2.39,3.51-6.09-5.58-4.91a22.05,22.05,0,0,0,0-12.74l5.58-4.91-3.51-6.1-7.05,2.39a21.81,21.81,0,0,0-11-6.37l-1.46-7.3h-3.52" style="fill:none;stroke:#263238;stroke-miterlimit:10"></path><path d="M372,144.14l-1.46,7.3a21.85,21.85,0,0,0-11,6.37l-7-2.39-3.51,6.1,5.58,4.91a22.05,22.05,0,0,0,0,12.74L349,184.08l3.51,6.09,7-2.39a21.94,21.94,0,0,0,11,6.38l1.46,7.29h7l1.46-7.29" style="fill:none;stroke:#263238;stroke-miterlimit:10"></path><path d="M375.09,184.53c-12.54-.88-14.89-19.14-2.36-22.35" style="fill:none;stroke:#263238;stroke-miterlimit:10"></path><path d="M383,164.7c6.24,5.71,4.27,16.87-4,19.39" style="fill:none;stroke:#263238;stroke-miterlimit:10"></path><path d="M377,161.93a10.92,10.92,0,0,1,3.16.87" style="fill:none;stroke:#263238;stroke-miterlimit:10"></path><path d="M417.88,199.71l1.48-1.77a14.55,14.55,0,0,0,8.39-.21l3.32,3.59" style="fill:none;stroke:#263238;stroke-miterlimit:10"></path><path d="M412.41,172l.65,1.75a14.47,14.47,0,0,0-4,7.37l-4.77,1.09.11,4.63,4.83.84a14.59,14.59,0,0,0,1.66,3.9,14.33,14.33,0,0,0,2.72,3.25l-1.45,4.68,4.07,2.21" style="fill:none;stroke:#263238;stroke-miterlimit:10"></path><path d="M431.07,201.32,435,198.9l-1.68-4.6a14.53,14.53,0,0,0,4-7.37l4.77-1.08-.12-4.63-4.82-.84a14.45,14.45,0,0,0-4.38-7.15l1.45-4.68-4.07-2.21L427,170.1a14.35,14.35,0,0,0-8.38.21l-3.33-3.59-3.95,2.42" style="fill:none;stroke:#263238;stroke-miterlimit:10"></path><path d="M430.48,182.32c1.37,5.74-4.09,11.27-9.86,8.94-5.5-2.23-6.3-10.3-1.19-13.4" style="fill:none;stroke:#263238;stroke-miterlimit:10"></path><path d="M425.76,177.16a7.37,7.37,0,0,1,3,2" style="fill:none;stroke:#263238;stroke-miterlimit:10"></path><path d="M108.82,296l7.52,7.51a8.08,8.08,0,0,0,9.73,9.73l-4.72-4.71,1.28-4.78,4.77-1.28,4.72,4.72a8.08,8.08,0,0,0-9.73-9.73l-6.92-6.92" style="fill:none;stroke:#263238;stroke-miterlimit:10"></path><path d="M104.48,279.58l-6.89-6.89A8.1,8.1,0,0,0,87.85,263l4.72,4.72-1.28,4.77-4.77,1.28L81.8,269a8.1,8.1,0,0,0,9.74,9.74l6.89,6.89" style="fill:none;stroke:#263238;stroke-miterlimit:10"></path><path d="M112.22,286.83l9.61-9.61a6.68,6.68,0,0,1,1.61-1.18l1.93-1,7-8L128,262.74l-8,7-1,1.93a6.25,6.25,0,0,1-1.18,1.61l-7.62,7.63" style="fill:none;stroke:#263238;stroke-miterlimit:10"></path><path d="M86.64,312a3.26,3.26,0,0,0,4.18-.58l16.65-16.65a3.16,3.16,0,0,0,1-2.89l2.89-2.89.18.17a1.06,1.06,0,0,0,1.51,0,1.08,1.08,0,0,0,0-1.51l-5.7-5.7a1.07,1.07,0,0,0-1.51,1.52l.18.17-2.89,2.89a3.15,3.15,0,0,0-2.89,1L83.61,304.25A3.22,3.22,0,0,0,82.55,307" style="fill:none;stroke:#263238;stroke-miterlimit:10"></path><path d="M83.22,308.76a9.25,9.25,0,0,0,1.38,1.71,8.72,8.72,0,0,0,2,1.57" style="fill:none;stroke:#263238;stroke-miterlimit:10"></path><line x1="88.34" y1="306.99" x2="91.25" y2="304.08" style="fill:none;stroke:#263238;stroke-miterlimit:10"></line><line x1="95.18" y1="300.15" x2="107.48" y2="287.59" style="fill:none;stroke:#263238;stroke-miterlimit:10"></line></g><g id="freepik--Coding--inject-86"><rect x="96.96" y="87.76" width="266.6" height="173.2" style="fill:#fff"></rect><polygon points="363.56 87.76 96.96 87.76 96.96 260.96 125.15 260.96 169.84 260.96 363.56 260.96 363.56 87.76" style="fill:#bfbfbf"></polygon><rect x="96.96" y="87.76" width="266.6" height="22.66" style="fill:#fff"></rect><rect x="96.96" y="87.76" width="266.6" height="22.66" style="fill:#757575"></rect><rect x="342.57" y="91.37" width="15.44" height="15.44" rx="2.62" style="fill:#fff"></rect><rect x="323.65" y="91.37" width="15.44" height="15.44" rx="2.64" style="fill:#fff"></rect><rect x="304.73" y="91.37" width="15.44" height="15.44" rx="2.62" style="fill:#fff"></rect><rect x="106.96" y="120.42" width="246.6" height="130.54" rx="5.22" style="fill:#263238;stroke:#263238;stroke-linecap:round;stroke-linejoin:round"></rect><line x1="346.98" y1="102.4" x2="353.6" y2="95.78" style="fill:none;stroke:#263238;stroke-linecap:round;stroke-linejoin:round"></line><line x1="346.98" y1="95.78" x2="353.6" y2="102.4" style="fill:none;stroke:#263238;stroke-linecap:round;stroke-linejoin:round"></line><rect x="326.95" y="97.67" width="8.83" height="5.83" style="fill:none;stroke:#263238;stroke-linecap:round;stroke-linejoin:round"></rect><line x1="316.86" y1="103.5" x2="308.03" y2="103.5" style="fill:none;stroke:#263238;stroke-linecap:round;stroke-linejoin:round"></line><path d="M338.06,209.16H320.53a2,2,0,0,1,0-4h17.53a2,2,0,0,1,0,4Z" style="fill:#757575"></path><path d="M338.06,223H289.13a2,2,0,0,1,0-4h48.93a2,2,0,0,1,0,4Z" style="fill:#757575"></path><path d="M338.06,236.83H230.26a2,2,0,0,1,0-4h107.8a2,2,0,0,1,0,4Z" style="fill:#757575"></path><path d="M125.46,195.33h-8.17a2,2,0,1,1,0-4h8.17a2,2,0,1,1,0,4Z" style="fill:#bfbfbf"></path><path d="M125.46,209.16h-8.17a2,2,0,1,1,0-4h8.17a2,2,0,1,1,0,4Z" style="fill:#bfbfbf"></path><path d="M125.46,223h-8.17a2,2,0,0,1,0-4h8.17a2,2,0,0,1,0,4Z" style="fill:#bfbfbf"></path><path d="M125.46,236.83h-8.17a2,2,0,1,1,0-4h8.17a2,2,0,1,1,0,4Z" style="fill:#bfbfbf"></path><g style="opacity:0.7000000000000001"><path d="M125.46,195.33h-8.17a2,2,0,1,1,0-4h8.17a2,2,0,1,1,0,4Z" style="fill:#bfbfbf"></path></g><g style="opacity:0.7000000000000001"><path d="M125.46,209.16h-8.17a2,2,0,1,1,0-4h8.17a2,2,0,1,1,0,4Z" style="fill:#bfbfbf"></path></g><g style="opacity:0.7000000000000001"><path d="M125.46,223h-8.17a2,2,0,0,1,0-4h8.17a2,2,0,0,1,0,4Z" style="fill:#bfbfbf"></path></g><g style="opacity:0.7000000000000001"><path d="M125.46,236.83h-8.17a2,2,0,1,1,0-4h8.17a2,2,0,1,1,0,4Z" style="fill:#bfbfbf"></path></g><path d="M289.13,181.49H117.29a2,2,0,0,1,0-4H289.13a2,2,0,0,1,0,4Z" style="fill:#bfbfbf"></path><path d="M338.06,153.83H320.53a2,2,0,0,1,0-4h17.53a2,2,0,0,1,0,4Z" style="fill:#bfbfbf"></path><path d="M313.2,153.83H296.46a2,2,0,0,1,0-4H313.2a2,2,0,0,1,0,4Z" style="fill:#bfbfbf"></path><path d="M289.13,153.83H117.29a2,2,0,1,1,0-4H289.13a2,2,0,0,1,0,4Z" style="fill:#bfbfbf"></path><path d="M338.06,195.33H320.53a2,2,0,0,1,0-4h17.53a2,2,0,0,1,0,4Z" style="fill:#999"></path><path d="M313.2,195.33H134.46a2,2,0,0,1,0-4H313.2a2,2,0,0,1,0,4Z" style="fill:#999"></path><path d="M185.79,209.16H134.46a2,2,0,0,1,0-4h51.33a2,2,0,0,1,0,4Z" style="fill:#999"></path><path d="M185.79,223H134.46a2,2,0,0,1,0-4h51.33a2,2,0,0,1,0,4Z" style="fill:#999"></path><path d="M185.79,236.83H134.46a2,2,0,0,1,0-4h51.33a2,2,0,0,1,0,4Z" style="fill:#999"></path></g><g id="freepik--character-1--inject-86"><path d="M152.08,414.24s-5.24,9-3.18,9.35,6.39-7.48,6.39-7.48L167.14,413l-8.93-.92Z" style="fill:#fff;stroke:#263238;stroke-linecap:round;stroke-linejoin:round"></path><path d="M152.08,414.24s-5.24,9-3.18,9.35,6.39-7.48,6.39-7.48L167.14,413l-8.93-.92Z" style="stroke:#263238;stroke-linecap:round;stroke-linejoin:round;opacity:0.30000000000000004"></path><path d="M156.07,408.08s-7.34-1.74-9.36,1.7-8,13.65-5.74,14.81,4.17-2.6,4.17-2.6Z" style="fill:#fff;stroke:#263238;stroke-linecap:round;stroke-linejoin:round"></path><path d="M186.09,418.54a33.39,33.39,0,0,1-15,1.58l-8.35,2.78s-7.34,3.61-10.76,1.79,8.7-5.84,8.7-5.84,8.15-3.53,5.72-4.38-11.63-.68-13.43.7-6.55,10.37-10,9.85,1.44-5.4,2.67-7.28,4-9.38,9.56-9.7,24.37.65,24.37.65l22.09-2.36,5.21,12.57Z" style="fill:#fff;stroke:#263238;stroke-linecap:round;stroke-linejoin:round"></path><path d="M197.62,421.65a3.54,3.54,0,0,0,4.21-.06,3.68,3.68,0,0,0,4-.74c1.61-1.77,1.75-17.3-2.71-19.05-1.29-.5-4.51-.45-5,1.35a2.36,2.36,0,0,0-3.24,2c-.44,2.8,2.34,5.41,1.41,13.46A3.17,3.17,0,0,0,197.62,421.65Z" style="fill:#823AE0;stroke:#263238;stroke-linecap:round;stroke-linejoin:round"></path><path d="M197.62,421.65a3.54,3.54,0,0,0,4.21-.06,3.68,3.68,0,0,0,4-.74c1.61-1.77,1.75-17.3-2.71-19.05-1.29-.5-4.51-.45-5,1.35a2.36,2.36,0,0,0-3.24,2c-.44,2.8,2.34,5.41,1.41,13.46A3.17,3.17,0,0,0,197.62,421.65Z" style="stroke:#263238;stroke-linecap:round;stroke-linejoin:round;opacity:0.30000000000000004"></path><path d="M202.72,418a30,30,0,0,0-2.64-12.27" style="fill:none;stroke:#263238;stroke-linecap:round;stroke-linejoin:round"></path><path d="M307.85,412.39c-.74,5.69-1.58,11.85-2.54,18.54H219.47l.41-11.06c-5.13,1.24-15.1.48-15.1.48V404c6.06-3.43,7-2.47,7-2.47s.31-39.9,3.94-49.86a20.09,20.09,0,0,1,7.1-9.34h0a24.31,24.31,0,0,1,2.71-1.75l.13-.08c1-.53,2.21-1.09,3.59-1.67l.38-.15c13.44-5.49,42.77-11.86,70.1-.18,1.91.82,17.51,8.27,18.84,19C319.29,363.67,315.11,394.21,307.85,412.39Z" style="fill:#823AE0"></path><g style="clip-path:url(#freepik--clip-path--inject-86)"><path d="M294.25,363.2l-8.56,39.73c-1.33-1.05-5.16-1.12-10-.66a15.66,15.66,0,0,0,2.59-3.88C291.19,370.39,294,363.76,294.25,363.2Z" style="opacity:0.2"></path><path d="M309.89,406.85a176,176,0,0,0-4.58,24.08H219.47l.79-12.74c5.35-.76,14.74-1.54,24.49-3.27a21.76,21.76,0,0,1,.23,9.31s39.48,4.9,52.73,1.71c3.78-.91,7.2-6.19,10.13-13.46C308.55,410.71,309.23,408.82,309.89,406.85Z" style="opacity:0.2"></path><path d="M212.77,402.28s-1.93-1.71-8,1.72v16.35s10-.35,13.92-2.48c3.38,2.09,2.78-36.18,3.38-56.79-4.9,1.35-5.29,10.67-6.05,19.44A175.71,175.71,0,0,1,212.77,402.28Z" style="opacity:0.30000000000000004"></path></g><path d="M307.85,412.39c-.74,5.69-1.58,11.85-2.54,18.54H219.47l.41-11.06c-5.13,1.24-15.1.48-15.1.48V404c6.06-3.43,7-2.47,7-2.47s.31-39.9,3.94-49.86a20.09,20.09,0,0,1,7.1-9.34h0a24.31,24.31,0,0,1,2.71-1.75l.13-.08c1-.53,2.21-1.09,3.59-1.67l.38-.15c13.44-5.49,42.77-11.86,70.1-.18,1.91.82,17.51,8.27,18.84,19C319.29,363.67,315.11,394.21,307.85,412.39Z" style="fill:none;stroke:#263238;stroke-linecap:round;stroke-linejoin:round"></path><path d="M318.53,357.53c0,.24.06.52.07.83.44,7.68-3.74,36.66-10.76,54.12-2.93,7.27-6.35,12.55-10.13,13.46-13.25,3.19-52.73-1.71-52.73-1.71a21.88,21.88,0,0,0-2.95-15.7s38.76-9.48,43.66-5.6l8.58-39.77" style="fill:none;stroke:#263238;stroke-linecap:round;stroke-linejoin:round"></path><path d="M288.39,405.1a17.6,17.6,0,0,1,6.87,5.88" style="fill:none;stroke:#263238;stroke-linecap:round;stroke-linejoin:round"></path><path d="M189.65,406.52s-3.62-.76-5.09.89-7.77,11.11-5.64,12.91,6.46-8.09,6.46-8.09Z" style="fill:#fff;stroke:#263238;stroke-linecap:round;stroke-linejoin:round"></path><path d="M196.91,406.35s-8-1.72-9.83.73-11.92,15.13-5.62,15.53l10-11.28Z" style="fill:#fff;stroke:#263238;stroke-linecap:round;stroke-linejoin:round"></path><path d="M215.05,419.83s-8.25,1.8-11.6,2.46-9.57,5-13.25,3.27,12-8.1,12-8.1l5.4-2.17Z" style="fill:#bfbfbf;stroke:#263238;stroke-linecap:round;stroke-linejoin:round"></path><path d="M221.73,370.47c.12-3.13.23-6.26.35-9.39" style="fill:none;stroke:#263238;stroke-linecap:round;stroke-linejoin:round"></path><path d="M219.47,430.93c1.53-18.93,2.1-56.2,2.1-56.2" style="fill:none;stroke:#263238;stroke-linecap:round;stroke-linejoin:round"></path><path d="M245,409.62H216.53s-22.08-6.63-25.75-1.48-11.53,13-9.32,14.47S193,413.42,193,413.42l8.1.07s-6.87,3-8.34,4.46-4.66,5.64-3,6.38,7.12-4.66,7.12-4.66,8.09-2,10.05-1a27.92,27.92,0,0,0,20.36,2l21.71,2.7Z" style="fill:#fff;stroke:#263238;stroke-linecap:round;stroke-linejoin:round"></path><path d="M291.3,376.93a42.14,42.14,0,0,1-.09-13.77" style="fill:none;stroke:#263238;stroke-linecap:round;stroke-linejoin:round"></path><path d="M297.75,353.08s13.8-18.18,20.78,4.45" style="fill:none;stroke:#263238;stroke-linecap:round;stroke-linejoin:round"></path><path d="M239.14,407.37a3.57,3.57,0,0,1,4.1-1,3.67,3.67,0,0,1,4.06-.28c2,1.32,6,16.32,2.11,19.13-1.12.8-4.25,1.55-5.21-.06a2.37,2.37,0,0,1-3.65-1.15c-1.12-2.61.93-5.82-2-13.39A3.19,3.19,0,0,1,239.14,407.37Z" style="fill:#823AE0"></path><g style="clip-path:url(#freepik--clip-path-2--inject-86)"><path d="M239.14,407.37a3.57,3.57,0,0,1,4.1-1,3.67,3.67,0,0,1,4.06-.28c2,1.32,6,16.32,2.11,19.13-1.12.8-4.25,1.55-5.21-.06a2.37,2.37,0,0,1-3.65-1.15c-1.12-2.61.93-5.82-2-13.39A3.19,3.19,0,0,1,239.14,407.37Z" style="opacity:0.30000000000000004"></path></g><path d="M239.14,407.37a3.57,3.57,0,0,1,4.1-1,3.67,3.67,0,0,1,4.06-.28c2,1.32,6,16.32,2.11,19.13-1.12.8-4.25,1.55-5.21-.06a2.37,2.37,0,0,1-3.65-1.15c-1.12-2.61.93-5.82-2-13.39A3.19,3.19,0,0,1,239.14,407.37Z" style="fill:none;stroke:#263238;stroke-linecap:round;stroke-linejoin:round"></path><path d="M245.46,415.16a25.16,25.16,0,0,1,.08,7" style="fill:none;stroke:#263238;stroke-linecap:round;stroke-linejoin:round"></path><path d="M258,370.25a1.95,1.95,0,1,1-1.84-2.05A2,2,0,0,1,258,370.25Z" style="fill:#fff;stroke:#263238;stroke-linecap:round;stroke-linejoin:round"></path><path d="M256.56,400.45a1.94,1.94,0,1,1-1.83-2.06A1.95,1.95,0,0,1,256.56,400.45Z" style="fill:#fff;stroke:#263238;stroke-linecap:round;stroke-linejoin:round"></path><path d="M274.42,333.27,273,313.12,252.14,318,251,334.13c-1.31.16-2.56.35-3.79.53l5.1,12.23,10,1.31,15.94-14.69C277,333.41,275.68,333.33,274.42,333.27Z" style="fill:#fff"></path><g style="clip-path:url(#freepik--clip-path-3--inject-86)"><path d="M251.83,325.08c.14,14.34,16.89,9.94,21.53-4.38l-.37-7.58L252.14,318Z" style="fill:#263238"></path></g><path d="M274.42,333.27,273,313.12,252.14,318,251,334.13c-1.31.16-2.56.35-3.79.53l5.1,12.23,10,1.31,15.94-14.69C277,333.41,275.68,333.33,274.42,333.27Z" style="fill:none;stroke:#263238;stroke-linecap:round;stroke-linejoin:round"></path><path d="M239.06,296.11s-7.62-13.18-8.74-20.13c-3.49-21.47,12-14.23,12-14.23s11-9.81,24.61-8.09,17.25,7.53,26.44,11.1c0,0-6.9,35-15.73,42.86S239.06,296.11,239.06,296.11Z" style="fill:#263238;stroke:#263238;stroke-linecap:round;stroke-linejoin:round"></path><path d="M243.07,264.94s-3.43-8.34,5.27-14.71" style="fill:none;stroke:#263238;stroke-linecap:round;stroke-linejoin:round"></path><path d="M258.05,259.93c10.19-4.5,14.74,3,26.11,5" style="fill:none;stroke:#bfbfbf;stroke-miterlimit:10"></path><path d="M250.18,264.94a13,13,0,0,1,3.31-2.95" style="fill:none;stroke:#bfbfbf;stroke-miterlimit:10"></path><path d="M260.64,268.21s4.41-4.23,13.16,1.27a22.84,22.84,0,0,0,8.73,3.44" style="fill:none;stroke:#bfbfbf;stroke-miterlimit:10"></path><path d="M274.12,277.37c-12.68.33-25.78-5.4-25.78-5.4-11.82,7.13-10.06,18.72-10.06,18.72,2.7,27.7,6.35,35.08,19.29,35.08s23.46-14,24.31-33.95C277,292.05,274.12,277.37,274.12,277.37Z" style="fill:#fff;stroke:#263238;stroke-linecap:round;stroke-linejoin:round"></path><path d="M280.79,290.69a3.35,3.35,0,0,1,2.6-1.47c2.3,0,4,3,3.19,6.75s-1.87,6.74-4.17,6.74a2.59,2.59,0,0,1-2.36-1.76" style="fill:#fff;stroke:#263238;stroke-linecap:round;stroke-linejoin:round"></path><path d="M255.58,304.29s1.55,2.12-1.42,3.71-5.33,1.56-6.09-.26,2.54-17,2.54-17" style="fill:none;stroke:#263238;stroke-linecap:round;stroke-linejoin:round"></path><path d="M250.11,293.17c-1.6-.81-8-3.61-14.08.21l.39,5.88s2.24,1.23,7.38,1.23a20.65,20.65,0,0,0,5-.52" style="fill:none;stroke:#263238;stroke-linecap:round;stroke-linejoin:round"></path><path d="M255.42,293.38l1.86,6.13s.76,1,5.91,1,6.84-1.23,6.84-1.23l-.15-5.88S262.41,289,255.42,293.38Z" style="fill:none;stroke:#263238;stroke-linecap:round;stroke-linejoin:round"></path><line x1="250.52" y1="293.38" x2="255.42" y2="293.38" style="fill:none;stroke:#263238;stroke-linecap:round;stroke-linejoin:round"></line><path d="M251.56,313.56a13.44,13.44,0,0,0,8.15-.25,11.3,11.3,0,0,0,5.07-3.82" style="fill:none;stroke:#263238;stroke-linecap:round;stroke-linejoin:round"></path><path d="M259.71,287.58c6.43-2.65,9.27.53,9.27.53" style="fill:none;stroke:#263238;stroke-linecap:round;stroke-linejoin:round"></path><path d="M242.74,287.32a6.51,6.51,0,0,1,6.88.79" style="fill:none;stroke:#263238;stroke-linecap:round;stroke-linejoin:round"></path><path d="M262.27,292.05c.6,0,1,1,1,2.17s-.5,2.16-1.08,2.16-1-1-1-2.16S261.68,292.05,262.27,292.05Z" style="fill:#263238"></path><path d="M246.3,291.78c.59,0,1,1,1,2.17s-.5,2.16-1.08,2.16-1-1-1-2.16S245.72,291.78,246.3,291.78Z" style="fill:#263238"></path><path d="M235.64,280.74a16.35,16.35,0,0,0,1,3.44" style="fill:none;stroke:#bfbfbf;stroke-miterlimit:10"></path><path d="M243.31,267.53c-6.32-1.7-8.82,2.1-8.35,8.1" style="fill:none;stroke:#bfbfbf;stroke-miterlimit:10"></path><path d="M250,333.19l7.7,13.86,18.49-14.59,5.69.8-12,21.15a1.63,1.63,0,0,1-2.28.57l-10.23-6.46-8,4.88a1.63,1.63,0,0,1-2.47-1.21l-2-18.06Z" style="fill:#823AE0"></path><g style="clip-path:url(#freepik--clip-path-4--inject-86)"><path d="M249.32,333.1l8.38,13.95,18.82-14.85,5.66.9-12.27,21.31a1.63,1.63,0,0,1-2.28.57l-10.23-6.46-8,4.88a1.63,1.63,0,0,1-2.47-1.21l-2-18.06Z" style="opacity:0.30000000000000004"></path></g><path d="M250,333.19l7.7,13.86,18.49-14.59,5.69.8-12,21.15a1.63,1.63,0,0,1-2.28.57l-10.23-6.46-8,4.88a1.63,1.63,0,0,1-2.47-1.21l-2-18.06Z" style="fill:none;stroke:#263238;stroke-linecap:round;stroke-linejoin:round"></path><path d="M135.35,424.23h50.28a0,0,0,0,1,0,0v6.7a0,0,0,0,1,0,0H135.35a2,2,0,0,1-2-2V426.2A2,2,0,0,1,135.35,424.23Z" style="fill:#263238;stroke:#263238;stroke-linecap:round;stroke-linejoin:round"></path><path d="M228.89,430.93H185.63v-6.7L229,427.08a1.38,1.38,0,0,1,1.28,1.37v1.11A1.37,1.37,0,0,1,228.89,430.93Z" style="fill:#823AE0;stroke:#263238;stroke-linecap:round;stroke-linejoin:round"></path><path d="M269.91,294.37l10.88-3.68-1.29,1.63" style="fill:none;stroke:#263238;stroke-linecap:round;stroke-linejoin:round"></path></g><g id="freepik--Desk--inject-86"><path d="M72.44,387.51S69,358.1,38.59,370c0,0,25.88-.19,30.26,22l4-.43Z" style="fill:#823AE0"></path><path d="M72.44,387.51S69,358.1,38.59,370c0,0,25.88-.19,30.26,22l4-.43Z" style="opacity:0.1"></path><path d="M72.86,387s-2.63-31.36-8.36-55.73c0,0,17.5,18.51,13.5,53.36Z" style="fill:#823AE0"></path><path d="M72.86,387s-2.63-31.36-8.36-55.73c0,0,17.5,18.51,13.5,53.36Z" style="opacity:0.1"></path><path d="M71.16,407.78s-5-43.2-21.83-58c0,0,30,7.47,25.58,53.35Z" style="fill:#823AE0"></path><path d="M76.44,406s7.35-42.87,24.91-56.78c0,0-30.38,5.84-28.4,51.9Z" style="fill:#823AE0"></path><path d="M91.85,391.94H56.35v6.17h1.18v21.77a11.05,11.05,0,0,0,11,11.05h11a11.06,11.06,0,0,0,11.06-11.05V398.11h1.18Z" style="fill:#fff;stroke:#263238;stroke-miterlimit:10"></path><path d="M80.85,397.82h4.72" style="fill:#fff;stroke:#263238;stroke-miterlimit:10"></path><path d="M62.34,397.82H76" style="fill:#fff;stroke:#263238;stroke-miterlimit:10"></path><path d="M212,403.77l-9.1-74.1a5,5,0,0,0-4.79-4.26H187.69L199.75,408h8.53A3.69,3.69,0,0,0,212,403.77Z" style="fill:#823AE0;stroke:#263238;stroke-linecap:round;stroke-linejoin:round"></path><path d="M206,408H101.16a5,5,0,0,1-4.78-4.26l-9.1-74.1A3.68,3.68,0,0,1,91,325.41H195.88a5,5,0,0,1,4.78,4.26l9.1,74.1A3.69,3.69,0,0,1,206,408Z" style="fill:#263238"></path><g style="clip-path:url(#freepik--clip-path-8--inject-86)"><path d="M206,408H101.16a5,5,0,0,1-4.78-4.26l-9.1-74.1A3.68,3.68,0,0,1,91,325.41H195.88a5,5,0,0,1,4.78,4.26l9.1,74.1A3.69,3.69,0,0,1,206,408Z" style="fill:#fff;opacity:0.1"></path></g><path d="M206,408H101.16a5,5,0,0,1-4.78-4.26l-9.1-74.1A3.68,3.68,0,0,1,91,325.41H195.88a5,5,0,0,1,4.78,4.26l9.1,74.1A3.69,3.69,0,0,1,206,408Z" style="fill:none;stroke:#263238;stroke-linecap:round;stroke-linejoin:round"></path><path d="M157.13,424.87l4.19-47.73a2,2,0,0,0-2-2.13H132.89a2,2,0,0,0-2,1.79l-4.56,52a2,2,0,0,0,2,2.13h52.44a2,2,0,0,0,2-2h0a2,2,0,0,0-2-2H159.08A2,2,0,0,1,157.13,424.87Z" style="fill:#263238;stroke:#263238;stroke-linecap:round;stroke-linejoin:round"></path><path d="M182.73,429a2,2,0,0,0-2-2H159.08a2,2,0,0,1-2-2.14l4.19-47.73a2,2,0,1,0-3.9-.34l-4.56,52a2,2,0,0,0,1.95,2.13h26A2,2,0,0,0,182.73,429Z" style="fill:#823AE0;stroke:#263238;stroke-linecap:round;stroke-linejoin:round"></path><line x1="62.5" y1="430.93" x2="437.5" y2="430.93" style="fill:none;stroke:#263238;stroke-linecap:round;stroke-linejoin:round"></line></g></svg>